#!OML:ASF F:\VICON\USERDATA\INSTALL\rory3\rory3.ASF
:FULLY-SPECIFIED
:DEGREES
1077
root 0.240968 15.9241 -3.89359 -12.5156 -38.6035 6.02353
lowerback 23.3118 1.65553 -0.775684
upperback 8.07714 1.86483 2.3116
thorax -4.22972 0.777884 2.45382
lowerneck -24.1122 -1.35916 -8.62882
upperneck 25.8994 0.0649511 4.21479
head 12.6283 -0.281345 3.07899
rclavicle 4.73108e-014 0
rhumerus -21.2024 14.0844 -83.6689
rradius 65.9252
rwrist 30.2921
rhand -27.3969 6.8319
rfingers 7.12502
rthumb -0.8034 -23.1463
lclavicle 4.73108e-014 0
lhumerus -22.5271 -15.1304 93.2598
lradius 64.4513
lwrist -16.0047
lhand -20.7715 15.166
lfingers 7.12502
lthumb 5.59495 45.0721
rfemur -50.629 -15.2348 14.5008
rtibia 70.4463
rfoot 4.40717 -12.0708
rtoes 9.04438
lfemur -57.9561 35.8285 -22.3191
ltibia 115.786
lfoot 3.54979 -18.3605
ltoes -14.5542
1078
root 0.221751 15.9286 -3.88467 -12.1937 -38.42 6.03211
lowerback 23.4652 1.56959 -0.57095
upperback 8.04703 1.80559 2.40755
thorax -4.33313 0.750293 2.45431
lowerneck -24.212 -1.31955 -8.59727
upperneck 26.1463 0.240077 3.81596
head 12.7376 -0.263875 2.9557
rclavicle -9.06458e-014 2.22639e-014
rhumerus -21.2564 14.4837 -83.5194
rradius 66.1424
rwrist 30.1359
rhand -27.4861 6.79435
rfingers 7.12502
rthumb -0.889585 -23.1835
lclavicle -9.06458e-014 2.22639e-014
lhumerus -22.6218 -15.0417 93.3744
lradius 64.5451
lwrist -16.1901
lhand -20.9207 14.971
lfingers 7.12502
lthumb 5.45094 44.8809
rfemur -50.6632 -15.2509 14.5752
rtibia 70.1737
rfoot 4.30186 -12.11
rtoes 8.73686
lfemur -58.2881 35.6682 -22.5039
ltibia 115.747
lfoot 3.58434 -18.3767
ltoes -14.405
1079
root 0.20084 15.9352 -3.87329 -11.8658 -38.3595 6.156
lowerback 23.3888 1.54 -0.389091
upperback 8.04953 1.81022 2.44757
thorax -4.28852 0.753935 2.39306
lowerneck -23.9915 -1.26516 -8.61201
upperneck 26.0708 0.389109 3.53107
head 12.6552 -0.238611 2.86886
rclavicle 6.12257e-014 -6.36111e-015
rhumerus -21.3654 14.9313 -83.3733
rradius 66.4777
rwrist 29.7133
rhand -27.0627 7.05696
rfingers 7.12502
rthumb -0.480616 -22.9222
lclavicle 6.12257e-014 -6.36111e-015
lhumerus -22.7032 -14.9467 93.4864
lradius 64.6153
lwrist -16.5208
lhand -21.005 14.8164
lfingers 7.12502
lthumb 5.36949 44.7283
rfemur -50.8007 -15.1062 14.5605
rtibia 69.8899
rfoot 4.17869 -12.1902
rtoes 9.127
lfemur -58.6615 35.6533 -22.817
ltibia 115.698
lfoot 3.47184 -18.4183
ltoes -14.5116
1080
root 0.17801 15.9437 -3.86148 -11.5339 -38.3213 6.2884
lowerback 23.2761 1.53992 -0.232818
upperback 8.07134 1.84525 2.47541
thorax -4.20636 0.772106 2.32583
lowerneck -23.864 -1.22933 -8.61844
upperneck 26.0903 0.47975 3.36631
head 12.633 -0.223569 2.82073
rclavicle -4.81059e-014 -9.54166e-015
rhumerus -21.4131 15.1761 -83.3029
rradius 66.7187
rwrist 29.4111
rhand -26.5957 7.27516
rfingers 7.12502
rthumb -0.0295935 -22.7046
lclavicle -4.81059e-014 -9.54166e-015
lhumerus -22.7839 -14.9562 93.5615
lradius 64.745
lwrist -16.7536
lhand -21.2945 14.7049
lfingers 7.12502
lthumb 5.09004 44.6237
rfemur -50.9268 -14.8598 14.521
rtibia 69.5892
rfoot 4.10932 -12.2287
rtoes 9.4738
lfemur -59.0253 35.6985 -23.1235
ltibia 115.636
lfoot 3.2636 -18.5618
ltoes -14.9831
1081
root 0.155537 15.9487 -3.85297 -11.2184 -38.1792 6.43309
lowerback 23.3209 1.47593 -0.195896
upperback 8.06015 1.77538 2.54109
thorax -4.23871 0.737727 2.39368
lowerneck -23.9745 -1.15751 -8.61754
upperneck 26.2677 0.645032 3.19771
head 12.7165 -0.17981 2.78869
rclavicle -7.39479e-014 -2.54444e-014
rhumerus -21.3172 15.4097 -83.2542
rradius 66.7702
rwrist 29.5007
rhand -26.8657 7.44314
rfingers 7.12502
rthumb -0.290364 -22.5364
lclavicle -7.39479e-014 -2.54444e-014
lhumerus -22.8544 -14.8733 93.6006
lradius 64.8787
lwrist -16.8346
lhand -22.1613 14.7897
lfingers 7.12502
lthumb 4.25304 44.727
rfemur -51.0042 -14.6739 14.456
rtibia 69.2628
rfoot 4.00433 -12.2643
rtoes 9.60153
lfemur -59.4228 35.5865 -23.452
ltibia 115.577
lfoot 3.14394 -18.7232
ltoes -15.4721
1082
root 0.132497 15.9587 -3.83861 -11.0655 -38.1414 6.76961
lowerback 23.3115 1.4445 -0.241559
upperback 8.10973 1.72194 2.54465
thorax -4.17892 0.709887 2.43826
lowerneck -24.1357 -1.09268 -8.56885
upperneck 26.3863 0.805185 2.97493
head 12.7882 -0.139373 2.72573
rclavicle -5.4467e-014 3.02153e-014
rhumerus -21.1915 15.6905 -83.2214
rradius 66.8255
rwrist 29.5482
rhand -27.2722 7.61758
rfingers 7.12502
rthumb -0.682999 -22.3611
lclavicle -5.4467e-014 3.02153e-014
lhumerus -22.8152 -14.8279 93.5666
lradius 64.842
lwrist -16.8547
lhand -23.5505 15.2697
lfingers 7.12502
lthumb 2.91148 45.2296
rfemur -51.0291 -14.4783 14.255
rtibia 68.921
rfoot 4.00903 -12.1862
rtoes 8.83501
lfemur -59.6385 35.566 -23.8646
ltibia 115.467
lfoot 3.06325 -18.8611
ltoes -15.635
1083
root 0.105996 15.9656 -3.82372 -10.7796 -38.1003 7.02123
lowerback 23.2381 1.42759 -0.19123
upperback 8.11363 1.71192 2.56078
thorax -4.1367 0.705526 2.43021
lowerneck -24.1271 -1.07774 -8.572
upperneck 26.441 0.890784 2.76979
head 12.806 -0.133124 2.66216
rclavicle -9.30312e-014 -1.43125e-014
rhumerus -21.2212 15.9785 -83.1634
rradius 67.0003
rwrist 29.4157
rhand -27.3584 7.66397
rfingers 7.12502
rthumb -0.766241 -22.3144
lclavicle -9.30312e-014 -1.43125e-014
lhumerus -22.881 -14.8761 93.5871
lradius 64.8532
lwrist -16.8737
lhand -24.631 15.7908
lfingers 7.12502
lthumb 1.86793 45.7624
rfemur -51.1219 -14.2369 14.1216
rtibia 68.5476
rfoot 4.0862 -12.1167
rtoes 8.19704
lfemur -60.01 35.595 -24.2598
ltibia 115.392
lfoot 2.78943 -19.0865
ltoes -15.9261
1084
root 0.079406 15.977 -3.81378 -10.3122 -38.0028 7.01385
lowerback 23.2734 1.35405 0.0673359
upperback 8.02297 1.68179 2.60827
thorax -4.24591 0.694802 2.34061
lowerneck -23.9265 -1.04304 -8.53807
upperneck 26.4145 0.972468 2.55168
head 12.7531 -0.124179 2.58317
rclavicle -2.21049e-013 3.18055e-015
rhumerus -21.3752 16.2087 -83.1925
rradius 67.1221
rwrist 29.3375
rhand -27.3629 7.70031
rfingers 7.12502
rthumb -0.770595 -22.278
lclavicle -2.21049e-013 3.18055e-015
lhumerus -23.1316 -14.9435 93.6111
lradius 64.9765
lwrist -16.9374
lhand -25.1468 15.9812
lfingers 7.12502
lthumb 1.36974 45.9565
rfemur -51.1683 -14.0625 14.2138
rtibia 68.0914
rfoot 4.22025 -12.0896
rtoes 8.18018
lfemur -60.4518 35.5474 -24.4372
ltibia 115.32
lfoot 2.62565 -19.2691
ltoes -15.8675
1085
root 0.0540066 15.9919 -3.80542 -9.95942 -37.8447 7.08946
lowerback 23.3522 1.27234 0.22845
upperback 7.99175 1.61682 2.65184
thorax -4.3133 0.664509 2.31194
lowerneck -23.8989 -1.00746 -8.45265
upperneck 26.4254 1.04898 2.35172
head 12.7501 -0.110448 2.50433
rclavicle 6.67916e-014 -4.77083e-015
rhumerus -21.4598 16.4545 -83.2362
rradius 67.2453
rwrist 29.3714
rhand -27.3687 7.64569
rfingers 7.12502
rthumb -0.776187 -22.3326
lclavicle 6.67916e-014 -4.77083e-015
lhumerus -23.2449 -14.9078 93.589
lradius 65.0493
lwrist -17.0983
lhand -25.3657 15.7631
lfingers 7.12502
lthumb 1.15836 45.7397
rfemur -51.0724 -13.9268 14.1989
rtibia 67.5512
rfoot 4.18261 -12.1649
rtoes 8.91157
lfemur -60.7393 35.4015 -24.6357
ltibia 115.183
lfoot 2.72827 -19.4227
ltoes -15.6232
